<svg xmlns="http://www.w3.org/2000/svg" width="148" height="28" viewBox="0 0 148 28">
  <metadata><?xpacket begin="﻿" id="W5M0MpCehiHzreSzNTczkc9d"?>
<x:xmpmeta xmlns:x="adobe:ns:meta/" x:xmptk="Adobe XMP Core 5.6-c138 79.159824, 2016/09/14-01:09:01        ">
   <rdf:RDF xmlns:rdf="http://www.w3.org/1999/02/22-rdf-syntax-ns#">
      <rdf:Description rdf:about=""/>
   </rdf:RDF>
</x:xmpmeta>
                                                                                                    
                                                                                                    
                                                                                                    
                                                                                                    
                                                                                                    
                                                                                                    
                                                                                                    
                                                                                                    
                                                                                                    
                                                                                                    
                                                                                                    
                                                                                                    
                                                                                                    
                                                                                                    
                                                                                                    
                                                                                                    
                                                                                                    
                                                                                                    
                                                                                                    
                                                                                                    
                           
<?xpacket end="w"?></metadata>
<defs>
    <style>
      .cls-1 {
        fill: #8e9498;
        fill-rule: evenodd;
      }
    </style>
  </defs>
  <path class="cls-1" d="M949.919,2324.33a0.165,0.165,0,0,0-.115-0.05,0.133,0.133,0,0,0-.111.06,10.3,10.3,0,0,1-2.324,2.06,10.428,10.428,0,0,1-5.709,1.69c-3.831,0-5.975-1.87-7.769-3.26a0.148,0.148,0,0,1-.06-0.12,0.135,0.135,0,0,1,.06-0.12,27.282,27.282,0,0,1,7.25-4.24,0.16,0.16,0,0,0,.1-0.17,0.156,0.156,0,0,0-.137-0.13c-0.4-.03-0.812-0.05-1.224-0.05a14.024,14.024,0,0,0-9.007,24.65,0.124,0.124,0,0,0,.14.03,0.139,0.139,0,0,0,.1-0.1l0.567-1.82a0.151,0.151,0,0,1,.177-0.1c7.427,1.63,10.61-2.44,10.086-4.94-0.447-2.14-3.917-4.04-9.039-1.14a0.189,0.189,0,0,1-.128.01,0.485,0.485,0,0,1-.041-0.03l-0.016-.01a0.163,0.163,0,0,1-.056-0.15l1.737-8.91h0a0.149,0.149,0,0,1,.089-0.11,0.142,0.142,0,0,1,.141.01c0.5,0.32,1.942,1.24,3.511,2.2a0.15,0.15,0,0,1,.072.15c-0.054.39-.247,1.79-0.352,2.36a0.14,0.14,0,0,0,.047.14,0.15,0.15,0,0,0,.142.04c8.538-2.32,10.321,3.1,10.1,5.69-0.493,5.85-6.881,8.95-12.586,9.03a0.154,0.154,0,0,0-.045.3,13.641,13.641,0,0,0,4.354.7,14.027,14.027,0,0,0,10.039-23.67m-13.61.37a40.994,40.994,0,0,0,8.2-1.28,38.788,38.788,0,0,0,5.394-2.44,18.747,18.747,0,0,0-13.6,3.72m0,0.01a8.885,8.885,0,0,0,13.605-3.73h-0.007a39.46,39.46,0,0,1-13.6,3.72,0.036,0.036,0,0,0,0,.01m70.423,5.69c-1.76,0-2.81,1.15-3.68,2.51h-0.04c0-1.43-.57-2.51-2.17-2.51-1.9,0-2.936,1.45-3.613,2.64h-0.04c0.111-.44.242-1.09,0.336-1.64a0.635,0.635,0,0,0-.137-0.51,0.615,0.615,0,0,0-.472-0.22h-1.923l-1.736,9.71a0.581,0.581,0,0,0,.563.68h2.039l0.148-.85c1.012-5.78,2.406-7.38,3.5-7.38,0.8,0,.882.76,0.692,1.79l-1.039,5.68a0.654,0.654,0,0,0,.137.53,0.623,0.623,0,0,0,.49.23h1.972l0.15-.85c1-5.74,2.39-7.38,3.53-7.38,0.76,0,.86.7,0.67,1.79l-1.04,5.8a0.561,0.561,0,0,0,.11.45,0.533,0.533,0,0,0,.41.19h2.06l1.16-6.59a6.959,6.959,0,0,0,.15-1.43C1008.96,2331.27,1008.14,2330.4,1006.73,2330.4Zm11.47-2.2,0.89,0.16c0.26,0.03.48,0.07,0.57-.35l0.31-1.12c0.08-.35-0.03-0.43-0.36-0.48l-0.83-.15a0.416,0.416,0,0,0-.57.32l-0.32,1.15A0.324,0.324,0,0,0,1018.2,2328.2Zm-26.222,2.47h-3.929c-2.911,0-4.854,1.26-4.854,3.61a2.069,2.069,0,0,0,1.732,2.13v0.02a3.56,3.56,0,0,0-1.121,1.05c-0.716.91-1.224,1.51-1.687,1.51a0.167,0.167,0,0,0-.169.15l-0.234,1.64a0.239,0.239,0,0,0,.24.28h0.838c1.329,0,1.815-.53,3.124-2.2,1.012-1.34,1.392-1.77,2-1.77h0.444l-0.646,3.68a0.241,0.241,0,0,0,.053.2,0.232,0.232,0,0,0,.187.09h2.27a0.24,0.24,0,0,0,.239-0.2l1.749-9.9a0.25,0.25,0,0,0-.052-0.2A0.237,0.237,0,0,0,991.978,2330.67Zm-3.276,4.53h-1.435c-0.886,0-1.307-.3-1.307-0.92,0-1.02.633-1.54,1.856-1.54h1.33Zm-3.568-9.33c10.923-.46,28.206,1.59,28.206,1.59a0.406,0.406,0,0,0,.47-0.26l0.18-.55v-0.01l0.3-.94a0.206,0.206,0,0,0-.02-0.17,0.226,0.226,0,0,0-.15-0.1c-2.14-.29-17.909-2.35-29.374-2.06a104.221,104.221,0,0,0-22.269,3.07,0.518,0.518,0,0,0-.369.4l-0.261,1.41a0.211,0.211,0,0,0,.061.19,0.192,0.192,0,0,0,.19.05c1.96-.43,4.675-0.9,8.27-1.35l-2.4,13.43c-0.06.23-.06,0.5,0.361,0.5h2.329a0.368,0.368,0,0,0,.4-0.41l2.255-13.08a1.219,1.219,0,0,1,.913-0.9h0.011c0.973-.1,2.652-0.21,3.68-0.3l-2.494,14.22c-0.09.49,0.159,0.47,0.34,0.47H978.2a0.513,0.513,0,0,0,.559-0.49l2.344-13.62h0.006a1.226,1.226,0,0,1,.9-0.89C983.182,2325.99,983.941,2325.92,985.134,2325.87Zm30.2,1.92,1,0.14c0.27,0.03.5,0.07,0.59-.36l0.33-1.17c0.08-.37-0.03-0.45-0.37-0.51l-0.94-.13a0.431,0.431,0,0,0-.59.34l-0.34,1.2A0.34,0.34,0,0,0,1015.33,2327.79Zm3.93,5.3c0-1.71-1.18-2.69-3.14-2.69-3.3,0-5.91,2.88-5.91,6.76,0,2.45,1.35,4.16,3.94,4.16a6.156,6.156,0,0,0,4.14-1.5l-1.08-1.83a4.1,4.1,0,0,1-2.61,1.09c-1.14,0-1.57-.71-1.63-1.9C1016.39,2336.8,1019.26,2335.62,1019.26,2333.09Zm-6.14,2.32c0.36-1.52,1.24-2.86,2.53-2.86a0.8,0.8,0,0,1,.97.85C1016.62,2334.49,1015.21,2335.2,1013.12,2335.41Zm14.29-5.01c-1.8,0-2.75,1.23-3.59,2.7h-0.05c0.1-.37.19-0.72,0.27-1.08a1.172,1.172,0,0,0-.22-0.93,1.089,1.089,0,0,0-.86-0.42h-1.32l-2.72,15.04h1.54a1.424,1.424,0,0,0,1.4-1.18l0.61-3.36a5.445,5.445,0,0,0,1.43.15c3.57,0,6.14-2.93,6.14-7.41C1030.04,2331.78,1029.03,2330.4,1027.41,2330.4Zm-3.51,8.87a3.693,3.693,0,0,1-1.05-.13l0.1-.57c0.78-3.82,2.11-5.76,3.32-5.76,0.65,0,.92.62,0.92,1.55C1027.19,2337.41,1025.72,2339.27,1023.9,2339.27Zm46.51-8.87c-3.82,0-6.48,3.05-6.48,7.51,0,2.13,1.08,3.41,2.66,3.41,1.67,0,2.68-1.26,3.48-2.77h0.05a12.751,12.751,0,0,0-.25,1.56,0.862,0.862,0,0,0,.21.67,0.841,0.841,0,0,0,.63.28h1.77a39.417,39.417,0,0,1,.65-5.33l0.87-4.74A9.7,9.7,0,0,0,1070.41,2330.4Zm0.49,2.77c-0.7,3.88-2.05,5.76-3.17,5.76-0.65,0-.95-0.51-0.95-1.5,0-2.92,1.52-4.95,3.21-4.95a3.89,3.89,0,0,1,.99.13Zm-10.58,3.8a4.4,4.4,0,0,0-.88-1.3l4.51-5h-2.47a1.465,1.465,0,0,0-1.11.52l-3.17,3.69h-0.57l0.62-3.4a0.71,0.71,0,0,0-.15-0.56,0.668,0.668,0,0,0-.52-0.25h-1.97l-1.84,10.39h1.99a0.922,0.922,0,0,0,.91-0.77l0.63-3.52h0.31c0.61,0,.97.66,1.63,2.05,0.73,1.62,1.11,2.24,2.44,2.24h1.08l0.38-2.07h-0.23C1061.36,2338.99,1060.96,2338.35,1060.32,2336.97Zm-11.16-5.66c-0.42,2.65-1.77,4.4-3.06,4.4-0.67,0-.91-0.49-0.7-1.64l0.34-2.05a1.228,1.228,0,0,0-.26-0.94,1.151,1.151,0,0,0-.88-0.41h-1.37l-0.63,3.52a6.851,6.851,0,0,0-.13,1.28c0,1.73.83,2.69,2.28,2.69a4.387,4.387,0,0,0,3.78-2.52h0.04c-0.32,1.58-.7,3.93-0.87,5.42h2.66a53.322,53.322,0,0,1,.72-5.33l0.91-5.06h-2.72Zm-12.28-.91c-3.34,0-5.83,2.98-5.83,6.59a4.016,4.016,0,0,0,4.12,4.33c3.42,0,5.78-2.84,5.78-6.59C1040.95,2332.25,1039.48,2330.4,1036.88,2330.4Zm-1.46,8.78c-1.05,0-1.58-.89-1.58-2.26,0-1.92,1.08-4.39,2.81-4.39,1.05,0,1.56.81,1.56,2.24C1038.21,2336.67,1037.24,2339.18,1035.42,2339.18Z" transform="translate(-926 -2320)"/>
</svg>
